<mxfile host="65bd71144e">
    <diagram id="eN4iIm8ZHHx9D5uJe-nz" name="Page-1">
        <mxGraphModel dx="899" dy="506" grid="1" gridSize="10" guides="1" tooltips="1" connect="1" arrows="1" fold="1" page="1" pageScale="1" pageWidth="850" pageHeight="1100" math="0" shadow="0">
            <root>
                <mxCell id="0"/>
                <mxCell id="1" parent="0"/>
                <mxCell id="2" value="Cloud Provider" style="shape=mxgraph.ibm.box;prType=cloud;fontStyle=0;verticalAlign=top;align=left;spacingLeft=32;spacingTop=4;fillColor=none;rounded=0;whiteSpace=wrap;html=1;strokeColor=#4376BB;strokeWidth=3;dashed=0;container=1;spacing=-4;collapsible=0;expand=0;recursiveResize=0;" vertex="1" parent="1">
                    <mxGeometry x="20" y="20" width="820" height="680" as="geometry"/>
                </mxCell>
                <mxCell id="4" value="Region-west" style="shape=mxgraph.ibm.box;prType=region;fontStyle=0;verticalAlign=top;align=left;spacingLeft=32;spacingTop=4;fillColor=none;rounded=0;whiteSpace=wrap;html=1;strokeColor=#919191;strokeWidth=2;dashed=0;container=1;spacing=-4;collapsible=0;expand=0;recursiveResize=0;" vertex="1" parent="2">
                    <mxGeometry x="10" y="40" width="790" height="270" as="geometry"/>
                </mxCell>
                <mxCell id="3" value="VPC" style="shape=mxgraph.ibm.box;prType=vpc;fontStyle=0;verticalAlign=top;align=left;spacingLeft=32;spacingTop=4;fillColor=none;rounded=0;whiteSpace=wrap;html=1;strokeColor=#4376BB;strokeWidth=2;dashed=0;container=1;spacing=-4;collapsible=0;expand=0;recursiveResize=0;" vertex="1" parent="4">
                    <mxGeometry x="10" y="40" width="770" height="210" as="geometry"/>
                </mxCell>
                <mxCell id="5" value="OpenShift | k8s" style="fontStyle=0;verticalAlign=top;align=center;spacingTop=-2;fillColor=none;rounded=0;whiteSpace=wrap;html=1;strokeColor=#FF0000;strokeWidth=2;dashed=1;container=1;collapsible=0;expand=0;recursiveResize=0;fontColor=#FF0000;fontSize=9;" vertex="1" parent="3">
                    <mxGeometry x="10" y="30" width="750" height="170" as="geometry"/>
                </mxCell>
                <mxCell id="6" value="Zone" style="shape=mxgraph.ibm.box;prType=zone;fontStyle=0;verticalAlign=top;align=left;spacingLeft=32;spacingTop=4;fillColor=#E0E0E0;rounded=0;whiteSpace=wrap;html=1;strokeColor=#919191;strokeWidth=1;dashed=0;container=1;spacing=-4;collapsible=0;expand=0;recursiveResize=0;fontSize=9;fontColor=#000000;" vertex="1" parent="5">
                    <mxGeometry x="20" y="20" width="190" height="140" as="geometry"/>
                </mxCell>
                <mxCell id="9" value="Kafka Broker&lt;br&gt;&amp;nbsp;Node" style="aspect=fixed;perimeter=ellipsePerimeter;html=1;align=center;shadow=0;dashed=0;fontColor=#4277BB;labelBackgroundColor=#ffffff;fontSize=8;spacingTop=0;image;image=img/lib/ibm/infrastructure/infrastructure_services.svg;" vertex="1" parent="6">
                    <mxGeometry x="18" y="30" width="30" height="30" as="geometry"/>
                </mxCell>
                <mxCell id="10" value="Kafka Broker&lt;br&gt;&amp;nbsp;Node" style="aspect=fixed;perimeter=ellipsePerimeter;html=1;align=center;shadow=0;dashed=0;fontColor=#4277BB;labelBackgroundColor=#ffffff;fontSize=8;spacingTop=0;image;image=img/lib/ibm/infrastructure/infrastructure_services.svg;" vertex="1" parent="6">
                    <mxGeometry x="130" y="30" width="30" height="30" as="geometry"/>
                </mxCell>
                <mxCell id="15" value="Kafka Connect&lt;br&gt;&amp;nbsp;Node" style="aspect=fixed;perimeter=ellipsePerimeter;html=1;align=center;shadow=0;dashed=0;fontColor=#4277BB;labelBackgroundColor=#ffffff;fontSize=8;spacingTop=0;image;image=img/lib/ibm/infrastructure/infrastructure_services.svg;" vertex="1" parent="6">
                    <mxGeometry x="80" y="90" width="30" height="30" as="geometry"/>
                </mxCell>
                <mxCell id="33" value="Kafka Broker&lt;br&gt;&amp;nbsp;Node" style="aspect=fixed;perimeter=ellipsePerimeter;html=1;align=center;shadow=0;dashed=0;fontColor=#4277BB;labelBackgroundColor=#ffffff;fontSize=8;spacingTop=0;image;image=img/lib/ibm/infrastructure/infrastructure_services.svg;" vertex="1" parent="6">
                    <mxGeometry x="80" y="30" width="30" height="30" as="geometry"/>
                </mxCell>
                <mxCell id="7" value="Zone" style="shape=mxgraph.ibm.box;prType=zone;fontStyle=0;verticalAlign=top;align=left;spacingLeft=32;spacingTop=4;fillColor=#E0E0E0;rounded=0;whiteSpace=wrap;html=1;strokeColor=#919191;strokeWidth=1;dashed=0;container=1;spacing=-4;collapsible=0;expand=0;recursiveResize=0;fontSize=9;fontColor=#000000;" vertex="1" parent="5">
                    <mxGeometry x="240" y="20" width="190" height="140" as="geometry"/>
                </mxCell>
                <mxCell id="11" value="Kafka Broker&lt;br&gt;&amp;nbsp;Node" style="aspect=fixed;perimeter=ellipsePerimeter;html=1;align=center;shadow=0;dashed=0;fontColor=#4277BB;labelBackgroundColor=#ffffff;fontSize=8;spacingTop=0;image;image=img/lib/ibm/infrastructure/infrastructure_services.svg;" vertex="1" parent="7">
                    <mxGeometry x="20" y="30" width="30" height="30" as="geometry"/>
                </mxCell>
                <mxCell id="12" value="Kafka Broker&lt;br&gt;&amp;nbsp;Node" style="aspect=fixed;perimeter=ellipsePerimeter;html=1;align=center;shadow=0;dashed=0;fontColor=#4277BB;labelBackgroundColor=#ffffff;fontSize=8;spacingTop=0;image;image=img/lib/ibm/infrastructure/infrastructure_services.svg;" vertex="1" parent="7">
                    <mxGeometry x="130" y="30" width="30" height="30" as="geometry"/>
                </mxCell>
                <mxCell id="16" value="Kafka Connect&lt;br&gt;&amp;nbsp;Node" style="aspect=fixed;perimeter=ellipsePerimeter;html=1;align=center;shadow=0;dashed=0;fontColor=#4277BB;labelBackgroundColor=#ffffff;fontSize=8;spacingTop=0;image;image=img/lib/ibm/infrastructure/infrastructure_services.svg;" vertex="1" parent="7">
                    <mxGeometry x="80" y="90" width="30" height="30" as="geometry"/>
                </mxCell>
                <mxCell id="34" value="Kafka Broker&lt;br&gt;&amp;nbsp;Node" style="aspect=fixed;perimeter=ellipsePerimeter;html=1;align=center;shadow=0;dashed=0;fontColor=#4277BB;labelBackgroundColor=#ffffff;fontSize=8;spacingTop=0;image;image=img/lib/ibm/infrastructure/infrastructure_services.svg;" vertex="1" parent="7">
                    <mxGeometry x="80" y="30" width="30" height="30" as="geometry"/>
                </mxCell>
                <mxCell id="8" value="Zone" style="shape=mxgraph.ibm.box;prType=zone;fontStyle=0;verticalAlign=top;align=left;spacingLeft=32;spacingTop=4;fillColor=#E0E0E0;rounded=0;whiteSpace=wrap;html=1;strokeColor=#919191;strokeWidth=1;dashed=0;container=1;spacing=-4;collapsible=0;expand=0;recursiveResize=0;fontSize=9;fontColor=#000000;" vertex="1" parent="5">
                    <mxGeometry x="460" y="20" width="190" height="140" as="geometry"/>
                </mxCell>
                <mxCell id="13" value="Kafka Broker&lt;br&gt;&amp;nbsp;Node" style="aspect=fixed;perimeter=ellipsePerimeter;html=1;align=center;shadow=0;dashed=0;fontColor=#4277BB;labelBackgroundColor=#ffffff;fontSize=8;spacingTop=0;image;image=img/lib/ibm/infrastructure/infrastructure_services.svg;" vertex="1" parent="8">
                    <mxGeometry x="20" y="30" width="30" height="30" as="geometry"/>
                </mxCell>
                <mxCell id="14" value="Kafka Broker&lt;br&gt;&amp;nbsp;Node" style="aspect=fixed;perimeter=ellipsePerimeter;html=1;align=center;shadow=0;dashed=0;fontColor=#4277BB;labelBackgroundColor=#ffffff;fontSize=8;spacingTop=0;image;image=img/lib/ibm/infrastructure/infrastructure_services.svg;" vertex="1" parent="8">
                    <mxGeometry x="130" y="30" width="30" height="30" as="geometry"/>
                </mxCell>
                <mxCell id="17" value="Kafka Connect&lt;br&gt;&amp;nbsp;Node" style="aspect=fixed;perimeter=ellipsePerimeter;html=1;align=center;shadow=0;dashed=0;fontColor=#4277BB;labelBackgroundColor=#ffffff;fontSize=8;spacingTop=0;image;image=img/lib/ibm/infrastructure/infrastructure_services.svg;" vertex="1" parent="8">
                    <mxGeometry x="80" y="90" width="30" height="30" as="geometry"/>
                </mxCell>
                <mxCell id="35" value="Kafka Broker&lt;br&gt;&amp;nbsp;Node" style="aspect=fixed;perimeter=ellipsePerimeter;html=1;align=center;shadow=0;dashed=0;fontColor=#4277BB;labelBackgroundColor=#ffffff;fontSize=8;spacingTop=0;image;image=img/lib/ibm/infrastructure/infrastructure_services.svg;" vertex="1" parent="8">
                    <mxGeometry x="80" y="30" width="30" height="30" as="geometry"/>
                </mxCell>
                <mxCell id="18" value="Region-east (DR)" style="shape=mxgraph.ibm.box;prType=region;fontStyle=0;verticalAlign=top;align=left;spacingLeft=32;spacingTop=4;fillColor=none;rounded=0;whiteSpace=wrap;html=1;strokeColor=#919191;strokeWidth=2;dashed=0;container=1;spacing=-4;collapsible=0;expand=0;recursiveResize=0;" vertex="1" parent="2">
                    <mxGeometry x="10" y="330" width="790" height="270" as="geometry"/>
                </mxCell>
                <mxCell id="19" value="VPC" style="shape=mxgraph.ibm.box;prType=vpc;fontStyle=0;verticalAlign=top;align=left;spacingLeft=32;spacingTop=4;fillColor=none;rounded=0;whiteSpace=wrap;html=1;strokeColor=#4376BB;strokeWidth=2;dashed=0;container=1;spacing=-4;collapsible=0;expand=0;recursiveResize=0;" vertex="1" parent="18">
                    <mxGeometry x="10" y="40" width="770" height="210" as="geometry"/>
                </mxCell>
                <mxCell id="20" value="OpenShift | k8s" style="fontStyle=0;verticalAlign=top;align=center;spacingTop=-2;fillColor=none;rounded=0;whiteSpace=wrap;html=1;strokeColor=#FF0000;strokeWidth=2;dashed=1;container=1;collapsible=0;expand=0;recursiveResize=0;fontColor=#FF0000;fontSize=9;" vertex="1" parent="19">
                    <mxGeometry x="10" y="30" width="750" height="170" as="geometry"/>
                </mxCell>
                <mxCell id="21" value="Zone" style="shape=mxgraph.ibm.box;prType=zone;fontStyle=0;verticalAlign=top;align=left;spacingLeft=32;spacingTop=4;fillColor=#E0E0E0;rounded=0;whiteSpace=wrap;html=1;strokeColor=#919191;strokeWidth=1;dashed=0;container=1;spacing=-4;collapsible=0;expand=0;recursiveResize=0;fontSize=9;fontColor=#000000;" vertex="1" parent="20">
                    <mxGeometry x="20" y="20" width="190" height="140" as="geometry"/>
                </mxCell>
                <mxCell id="22" value="Kafka Broker&lt;br&gt;&amp;nbsp;Node" style="aspect=fixed;perimeter=ellipsePerimeter;html=1;align=center;shadow=0;dashed=0;fontColor=#4277BB;labelBackgroundColor=#ffffff;fontSize=8;spacingTop=0;image;image=img/lib/ibm/infrastructure/infrastructure_services.svg;" vertex="1" parent="21">
                    <mxGeometry x="20" y="30" width="30" height="30" as="geometry"/>
                </mxCell>
                <mxCell id="23" value="Kafka Broker&lt;br&gt;&amp;nbsp;Node" style="aspect=fixed;perimeter=ellipsePerimeter;html=1;align=center;shadow=0;dashed=0;fontColor=#4277BB;labelBackgroundColor=#ffffff;fontSize=8;spacingTop=0;image;image=img/lib/ibm/infrastructure/infrastructure_services.svg;" vertex="1" parent="21">
                    <mxGeometry x="130" y="30" width="30" height="30" as="geometry"/>
                </mxCell>
                <mxCell id="24" value="Kafka Connect / Geo&lt;br&gt;&amp;nbsp;Node" style="aspect=fixed;perimeter=ellipsePerimeter;html=1;align=center;shadow=0;dashed=0;fontColor=#4277BB;labelBackgroundColor=#ffffff;fontSize=8;spacingTop=0;image;image=img/lib/ibm/infrastructure/infrastructure_services.svg;" vertex="1" parent="21">
                    <mxGeometry x="80" y="90" width="30" height="30" as="geometry"/>
                </mxCell>
                <mxCell id="36" value="Kafka Broker&lt;br&gt;&amp;nbsp;Node" style="aspect=fixed;perimeter=ellipsePerimeter;html=1;align=center;shadow=0;dashed=0;fontColor=#4277BB;labelBackgroundColor=#ffffff;fontSize=8;spacingTop=0;image;image=img/lib/ibm/infrastructure/infrastructure_services.svg;" vertex="1" parent="21">
                    <mxGeometry x="80" y="30" width="30" height="30" as="geometry"/>
                </mxCell>
                <mxCell id="25" value="Zone" style="shape=mxgraph.ibm.box;prType=zone;fontStyle=0;verticalAlign=top;align=left;spacingLeft=32;spacingTop=4;fillColor=#E0E0E0;rounded=0;whiteSpace=wrap;html=1;strokeColor=#919191;strokeWidth=1;dashed=0;container=1;spacing=-4;collapsible=0;expand=0;recursiveResize=0;fontSize=9;fontColor=#000000;" vertex="1" parent="20">
                    <mxGeometry x="240" y="20" width="190" height="140" as="geometry"/>
                </mxCell>
                <mxCell id="26" value="Kafka Broker&lt;br&gt;&amp;nbsp;Node" style="aspect=fixed;perimeter=ellipsePerimeter;html=1;align=center;shadow=0;dashed=0;fontColor=#4277BB;labelBackgroundColor=#ffffff;fontSize=8;spacingTop=0;image;image=img/lib/ibm/infrastructure/infrastructure_services.svg;" vertex="1" parent="25">
                    <mxGeometry x="20" y="30" width="30" height="30" as="geometry"/>
                </mxCell>
                <mxCell id="27" value="Kafka Broker&lt;br&gt;&amp;nbsp;Node" style="aspect=fixed;perimeter=ellipsePerimeter;html=1;align=center;shadow=0;dashed=0;fontColor=#4277BB;labelBackgroundColor=#ffffff;fontSize=8;spacingTop=0;image;image=img/lib/ibm/infrastructure/infrastructure_services.svg;" vertex="1" parent="25">
                    <mxGeometry x="130" y="30" width="30" height="30" as="geometry"/>
                </mxCell>
                <mxCell id="28" value="Kafka Connect / Geo&lt;br&gt;&amp;nbsp;Node" style="aspect=fixed;perimeter=ellipsePerimeter;html=1;align=center;shadow=0;dashed=0;fontColor=#4277BB;labelBackgroundColor=#ffffff;fontSize=8;spacingTop=0;image;image=img/lib/ibm/infrastructure/infrastructure_services.svg;" vertex="1" parent="25">
                    <mxGeometry x="80" y="90" width="30" height="30" as="geometry"/>
                </mxCell>
                <mxCell id="37" value="Kafka Broker&lt;br&gt;&amp;nbsp;Node" style="aspect=fixed;perimeter=ellipsePerimeter;html=1;align=center;shadow=0;dashed=0;fontColor=#4277BB;labelBackgroundColor=#ffffff;fontSize=8;spacingTop=0;image;image=img/lib/ibm/infrastructure/infrastructure_services.svg;" vertex="1" parent="25">
                    <mxGeometry x="80" y="30" width="30" height="30" as="geometry"/>
                </mxCell>
                <mxCell id="29" value="Zone" style="shape=mxgraph.ibm.box;prType=zone;fontStyle=0;verticalAlign=top;align=left;spacingLeft=32;spacingTop=4;fillColor=#E0E0E0;rounded=0;whiteSpace=wrap;html=1;strokeColor=#919191;strokeWidth=1;dashed=0;container=1;spacing=-4;collapsible=0;expand=0;recursiveResize=0;fontSize=9;fontColor=#000000;" vertex="1" parent="20">
                    <mxGeometry x="460" y="20" width="190" height="140" as="geometry"/>
                </mxCell>
                <mxCell id="30" value="Kafka Broker&lt;br&gt;&amp;nbsp;Node" style="aspect=fixed;perimeter=ellipsePerimeter;html=1;align=center;shadow=0;dashed=0;fontColor=#4277BB;labelBackgroundColor=#ffffff;fontSize=8;spacingTop=0;image;image=img/lib/ibm/infrastructure/infrastructure_services.svg;" vertex="1" parent="29">
                    <mxGeometry x="20" y="30" width="30" height="30" as="geometry"/>
                </mxCell>
                <mxCell id="31" value="Kafka Broker&lt;br&gt;&amp;nbsp;Node" style="aspect=fixed;perimeter=ellipsePerimeter;html=1;align=center;shadow=0;dashed=0;fontColor=#4277BB;labelBackgroundColor=#ffffff;fontSize=8;spacingTop=0;image;image=img/lib/ibm/infrastructure/infrastructure_services.svg;" vertex="1" parent="29">
                    <mxGeometry x="130" y="30" width="30" height="30" as="geometry"/>
                </mxCell>
                <mxCell id="32" value="Kafka Connect / Geo&lt;br&gt;&amp;nbsp;Node" style="aspect=fixed;perimeter=ellipsePerimeter;html=1;align=center;shadow=0;dashed=0;fontColor=#4277BB;labelBackgroundColor=#ffffff;fontSize=8;spacingTop=0;image;image=img/lib/ibm/infrastructure/infrastructure_services.svg;" vertex="1" parent="29">
                    <mxGeometry x="80" y="90" width="30" height="30" as="geometry"/>
                </mxCell>
                <mxCell id="38" value="Kafka Broker&lt;br&gt;&amp;nbsp;Node" style="aspect=fixed;perimeter=ellipsePerimeter;html=1;align=center;shadow=0;dashed=0;fontColor=#4277BB;labelBackgroundColor=#ffffff;fontSize=8;spacingTop=0;image;image=img/lib/ibm/infrastructure/infrastructure_services.svg;" vertex="1" parent="29">
                    <mxGeometry x="80" y="30" width="30" height="30" as="geometry"/>
                </mxCell>
            </root>
        </mxGraphModel>
    </diagram>
</mxfile>